<svg width="61" height="56" viewBox="0 0 61 56" fill="none" xmlns="http://www.w3.org/2000/svg">
<path d="M56.0144 29.1019V1.77964C56.0144 0.804893 55.2242 0.0146484 54.2495 0.0146484H6.96161C5.98687 0.0146484 5.19662 0.804893 5.19662 1.77964V31.28C4.34519 31.404 3.51282 31.7346 2.77647 32.2812C0.455155 33.9273 -0.0938739 37.6109 1.85056 39.8827L9.80042 49.5204C14.7214 55.2798 19.949 55.9854 27.7204 55.9854C34.3893 55.9854 37.3709 56.0148 43.183 54.6905L48.8425 53.3369C49.7601 54.6184 51.217 55.4485 52.8548 55.4485H55.6427C58.4128 55.4485 60.6665 53.0744 60.6665 50.1561V34.3784C60.6666 31.592 58.6114 29.3031 56.0144 29.1019ZM48.0812 32.7326L45.7295 31.5382C41.8629 29.5865 37.3924 29.5142 33.4647 31.3403C32.3931 31.7618 30.0559 33.1759 28.8436 33.1286H20.6832C17.9764 33.1286 15.7742 35.3307 15.7742 38.0376V39.3247C15.759 39.3087 15.7431 39.2936 15.7282 39.2773L9.90079 32.9519C9.54815 32.5692 9.15197 32.2489 8.72672 31.9919V14.481H23.1706V20.951C23.1706 21.9257 23.9608 22.7159 24.9356 22.7159H36.0728C37.0475 22.7159 37.8378 21.9257 37.8378 20.951V14.481H52.4846V29.1018C50.4224 29.2611 48.7028 30.7364 48.0812 32.7326ZM26.7004 14.481H34.3077V19.186H26.7004V14.481ZM52.4845 10.951H37.8378V3.54463H52.4846L52.4845 10.951ZM34.3078 3.54463V10.9511H26.7006V3.54463H34.3078ZM23.1705 3.54463V10.9511H8.7266V3.54463H23.1705ZM42.3638 51.2568C36.9947 52.4865 33.7611 52.4367 27.7837 52.4367C20.4884 52.4367 16.9635 52.3188 12.5237 47.274L4.57382 37.6363C3.19101 35.8357 5.69565 33.7101 7.30461 35.3435L13.132 41.669C14.6721 43.2941 16.6102 44.1885 18.999 44.2411H35.1554C36.1302 44.2411 36.9204 43.4508 36.9204 42.4761C36.9204 41.5013 36.1302 40.7111 35.1554 40.7111H19.3041V38.0373C19.3041 37.277 19.9226 36.6583 20.6831 36.6583H28.8435C30.6819 36.79 33.3354 35.2549 34.9528 34.541C37.8945 33.1733 41.2428 33.2274 44.1349 34.6872L47.8312 36.5646V49.9489L42.3638 51.2568ZM57.1366 50.156C57.1366 51.1278 56.4665 51.9184 55.6428 51.9184H52.8549C52.0312 51.9184 51.3612 51.1278 51.3612 50.156V34.3784C51.3612 33.4066 52.0313 32.6159 52.8549 32.6159H55.6428C56.4665 32.6159 57.1366 33.4065 57.1366 34.3784V50.156Z" fill="#242424"/>
</svg>
